<svg width="162" height="50" viewBox="0 0 162 50" fill="none" xmlns="http://www.w3.org/2000/svg">
<path d="M50 25C50 29.9445 48.5338 34.778 45.7867 38.8893C43.0397 43.0005 39.1352 46.2048 34.5671 48.097C29.9989 49.9892 24.9723 50.4843 20.1227 49.5196C15.2732 48.555 10.8186 46.174 7.32233 42.6777C3.82602 39.1814 1.445 34.7268 0.480368 29.8773C-0.484263 25.0277 0.0108209 20.0011 1.90301 15.4329C3.7952 10.8648 6.99952 6.96029 11.1107 4.21326C15.222 1.46622 20.0555 -5.8963e-08 25 0V25H50Z" fill="#A1B748"/>
<path d="M44 25C44 20.6042 42.4758 16.3445 39.6872 12.9465C36.8986 9.54857 33.018 7.22265 28.7067 6.36508C24.3954 5.50751 19.9202 6.17135 16.0435 8.2435C12.1668 10.3156 9.12847 13.6679 7.44629 17.729C5.76411 21.7902 5.54211 26.3089 6.81813 30.5154C8.09415 34.7219 10.7892 38.3558 14.4442 40.7979C18.0991 43.2401 22.4877 44.3394 26.8623 43.9085C31.2369 43.4777 35.3268 41.5433 38.435 38.435L25 25H44Z" fill="#F2F2F2"/>
<path d="M50 25C50 29.9445 48.5338 34.778 45.7867 38.8893C43.0397 43.0005 39.1352 46.2048 34.5671 48.097C29.9989 49.9892 24.9723 50.4843 20.1227 49.5196C15.2732 48.555 10.8186 46.174 7.32233 42.6777C3.82602 39.1814 1.445 34.7268 0.480368 29.8773C-0.484263 25.0277 0.0108209 20.0011 1.90301 15.4329C3.7952 10.8648 6.99952 6.96029 11.1107 4.21326C15.222 1.46622 20.0555 -5.8963e-08 25 0V25H50Z" fill="url(#paint0_linear_34_1434)"/>
<path d="M84.043 34C84.043 33.4609 83.8672 33.168 83.5156 33.1211C83.3984 33.0977 83.2812 33.0859 83.1641 33.0859H82.0391L73.8828 12.9062H72.0195L64.2148 33.0859H62V34H68.3281C68.3281 33.4844 68.1758 33.1914 67.8711 33.1211C67.7305 33.0977 67.5898 33.0859 67.4492 33.0859H65.6211L68.2227 26.2656H75.4297L78.0664 33.0859H75.7109V34H84.043ZM75.0078 25.2461H68.6094L71.8086 16.9141L75.0078 25.2461ZM98.2461 24.4375V25.3516H101.305V31.3984C100.039 32.6406 98.4805 33.2617 96.6289 33.2617C92.7617 33.2617 90.582 30.8125 90.0898 25.9141C90.0195 25.1641 89.9844 24.3555 89.9844 23.4883C89.9844 17.2539 91.9883 13.9609 95.9961 13.6094C96.2305 13.5859 96.4648 13.5742 96.6992 13.5742C99.1367 13.5742 100.918 14.4531 102.043 16.2109C102.629 17.1719 103.121 18.4492 103.52 20.043H104.504L104.328 12.9766L101.164 13.6094C99.6406 12.9062 98.0234 12.5547 96.3125 12.5547C93.3359 12.5547 90.8516 13.5039 88.8594 15.4023C86.75 17.3945 85.6953 20.043 85.6953 23.3477C85.6953 27.2617 87.0898 30.2383 89.8789 32.2773C91.7773 33.6602 93.9336 34.3516 96.3477 34.3516C98.3164 34.3516 100.051 33.918 101.551 33.0508L105.066 34V25.3516H107.562V24.4375H98.2461ZM118.953 34V33.0859H116.141V24.332H118.848L124.332 34H129.992C129.992 33.4609 129.828 33.168 129.5 33.1211C129.383 33.0977 129.254 33.0859 129.113 33.0859H128.129L122.539 23.9805C124.93 23.3711 126.477 22.1289 127.18 20.2539C127.391 19.6445 127.496 19.0234 127.496 18.3906C127.496 16.6562 126.734 15.2617 125.211 14.207C123.922 13.3398 122.352 12.9062 120.5 12.9062H109.566V13.8203H112.379V33.0859H109.566V34H118.953ZM119.023 13.8203C120.992 13.8203 122.316 14.6875 122.996 16.4219C123.254 17.0781 123.383 17.7695 123.383 18.4961C123.383 20.2539 122.809 21.5898 121.66 22.5039C120.957 23.043 120.137 23.3125 119.199 23.3125H116.141V13.8203H119.023ZM142.473 12.5547C139.52 12.5547 137.012 13.5156 134.949 15.4375C132.746 17.4766 131.645 20.1133 131.645 23.3477C131.645 27.0977 132.969 30.0156 135.617 32.1016C137.562 33.6016 139.812 34.3516 142.367 34.3516C145.297 34.3516 147.793 33.3906 149.855 31.4688C152.035 29.4062 153.125 26.7461 153.125 23.4883C153.125 19.6211 151.766 16.6797 149.047 14.6641C147.148 13.2578 144.957 12.5547 142.473 12.5547ZM142.473 33.3672C138.16 33.3203 135.992 30.0273 135.969 23.4883C135.992 16.8789 138.125 13.5625 142.367 13.5391C146.609 13.5859 148.742 16.8438 148.766 23.3125C148.742 29.9922 146.645 33.3438 142.473 33.3672Z" fill="#F2F2F2"/>
<defs>
<linearGradient id="paint0_linear_34_1434" x1="25" y1="0" x2="25" y2="50" gradientUnits="userSpaceOnUse">
<stop stop-color="#48B760"/>
<stop offset="1" stop-color="#6BB748" stop-opacity="0.63"/>
</linearGradient>
</defs>
</svg>
